<?xml version="1.0" standalone="no"?>
<!DOCTYPE svg PUBLIC "-//W3C//DTD SVG 20010904//EN"
 "http://www.w3.org/TR/2001/REC-SVG-20010904/DTD/svg10.dtd">
<svg version="1.0" xmlns="http://www.w3.org/2000/svg"
 width="1000.000000pt" height="1000.000000pt" viewBox="0 0 1000.000000 1000.000000"
 preserveAspectRatio="xMidYMid meet">
<metadata>
Created by potrace 1.16, written by Peter Selinger 2001-2019
</metadata>
<g transform="translate(0.000000,1000.000000) scale(0.100000,-0.100000)"
fill="#000000" stroke="none">
<path d="M0 5000 l0 -5000 1429 0 c1134 0 1430 3 1434 12 4 10 6 10 6 1 1 -10
721 -13 3566 -13 l3565 0 0 5000 0 5000 -5000 0 -5000 0 0 -5000z m4297 1645
c56 -17 113 -66 142 -123 10 -20 58 -140 106 -267 159 -419 165 -435 183 -434
9 0 114 17 232 37 l215 37 5 345 c3 190 9 352 13 361 18 36 52 39 381 39 360
0 417 -8 536 -71 147 -78 252 -257 276 -471 l7 -60 41 6 c38 5 350 23 490 29
l58 2 19 72 c32 129 103 213 226 271 50 23 71 27 153 27 82 0 103 -4 153 -27
76 -36 130 -79 169 -136 33 -48 68 -146 68 -191 l0 -27 161 -18 c603 -65 961
-223 935 -413 -13 -95 -93 -189 -250 -295 -113 -75 -439 -235 -651 -319 -88
-35 -161 -64 -163 -65 -2 -1 11 -21 27 -45 17 -24 59 -120 95 -214 66 -175
348 -916 361 -948 7 -16 -1 -17 -120 -15 l-127 3 -19 50 c-11 28 -97 255 -191
505 -94 250 -175 461 -181 468 -14 18 -72 15 -89 -5 -8 -10 -51 -112 -96 -228
-255 -661 -309 -789 -333 -796 -13 -3 -70 -3 -125 0 l-102 6 69 175 c38 96
131 329 205 518 75 189 134 345 131 348 -3 3 -67 -15 -143 -40 -77 -25 -204
-65 -284 -90 l-145 -44 -7 -62 c-14 -126 -92 -241 -198 -291 -34 -16 -50 -29
-47 -39 3 -8 66 -118 140 -245 l135 -230 -36 -3 c-20 -2 -42 -8 -49 -14 -9 -7
-17 -7 -26 0 -7 6 -42 12 -77 14 l-64 3 -141 235 -141 235 -163 3 c-112 2
-168 -1 -177 -9 -11 -9 -14 -58 -14 -240 l0 -229 -110 0 -109 0 -3 258 c-2
141 0 273 4 292 4 19 5 36 4 38 -7 6 -136 -32 -136 -40 0 -5 -11 -6 -25 -2
-14 3 -25 2 -25 -3 0 -4 -17 -9 -37 -10 -21 0 -119 -18 -218 -40 l-180 -39 -3
-227 -2 -227 -110 0 -110 0 0 198 c0 109 -2 201 -5 203 -2 3 -117 -15 -254
-40 l-249 -45 -6 -39 c-19 -119 -104 -217 -220 -255 -64 -21 -82 -22 -471 -22
l-405 0 0 86 0 86 -42 -5 c-24 -4 -78 -9 -120 -13 -43 -3 -78 -10 -78 -15 0
-5 11 -37 25 -71 14 -34 23 -63 21 -65 -7 -7 -239 -4 -246 4 -4 4 -15 31 -25
58 -10 28 -21 53 -24 57 -4 5 -79 3 -166 -2 -88 -6 -267 -14 -399 -18 l-238
-7 -18 -45 -18 -45 -126 -3 -126 -3 20 51 c11 28 20 52 20 54 0 2 -53 6 -118
10 -147 8 -375 41 -470 66 -85 23 -83 23 -79 9 1 -6 -4 -14 -12 -16 -9 -4 -11
0 -7 13 5 16 -6 24 -65 48 -141 58 -219 160 -205 268 36 271 524 589 1376 898
367 133 892 293 1257 383 l172 42 30 80 c26 68 28 81 16 88 -8 4 -15 12 -15
17 0 14 28 12 32 -2 3 -7 24 37 47 98 24 60 86 217 138 349 52 132 102 258
111 280 40 97 90 151 168 179 52 19 197 20 261 1z m3647 -89 c81 -34 103 -127
43 -192 -101 -110 -274 17 -197 144 20 32 67 61 103 62 10 0 32 -6 51 -14z
m-1186 -3363 c2 -7 -5 -13 -15 -13 -37 -1 -79 -55 -68 -88 3 -9 32 -36 65 -59
66 -47 82 -80 59 -122 -32 -56 -160 -67 -167 -13 -4 23 23 32 30 10 6 -16 72
-15 92 1 26 21 19 57 -14 83 -90 68 -100 80 -100 113 0 51 55 108 99 102 8 -1
16 -8 19 -14z m1889 0 c2 -6 -10 -14 -27 -18 -30 -7 -60 -46 -60 -79 0 -8 25
-30 55 -50 88 -59 107 -105 61 -151 -45 -45 -156 -41 -156 6 0 23 16 24 37 3
11 -11 26 -14 46 -10 69 14 77 60 20 102 -99 73 -116 112 -72 168 33 42 87 58
96 29z m-7159 -5 c15 -15 16 -90 0 -106 -9 -9 -5 -16 14 -31 50 -39 39 -101
-27 -159 -22 -20 -45 -32 -57 -30 -20 3 -21 11 -23 163 -2 88 -1 163 2 168 7
12 78 8 91 -5z m535 4 c9 -1 17 -9 17 -17 0 -12 -9 -15 -32 -14 -88 6 -88 7
-88 -71 l0 -70 31 0 c37 0 35 -23 -2 -29 -31 -4 -39 -17 -39 -66 l0 -40 75 3
c62 3 75 1 75 -12 0 -12 -18 -15 -91 -18 l-92 -3 7 104 c3 57 6 134 6 170 l0
66 58 -1 c31 0 65 -1 75 -2z m527 -7 c0 -9 -15 -46 -34 -83 -33 -66 -34 -72
-29 -150 5 -72 4 -82 -11 -82 -12 0 -16 10 -16 43 -1 84 -15 123 -64 179 -26
29 -46 63 -46 75 0 29 16 29 31 1 13 -25 69 -88 79 -88 4 0 19 27 35 60 27 56
55 79 55 45z m468 -5 c36 -22 62 -72 62 -117 0 -15 -11 -52 -25 -80 -31 -68
-75 -92 -133 -75 -81 25 -111 101 -77 201 28 86 100 115 173 71z m871 5 c33
-17 55 -63 53 -112 -3 -82 -104 -230 -150 -221 -15 3 -17 23 -20 162 -2 108 1
163 9 172 15 18 73 18 108 -1z m1929 7 c37 -3 20 -27 -19 -28 -97 -2 -89 4
-89 -74 l0 -70 31 0 c37 0 35 -23 -2 -29 -31 -4 -39 -17 -39 -63 l0 -38 76 0
c56 0 75 -3 72 -12 -3 -9 -33 -14 -93 -16 l-88 -3 6 107 c4 59 7 135 7 168 l0
61 58 -1 c31 0 68 -1 80 -2z m-2351 -84 c-4 -46 -7 -120 -7 -165 0 -76 -2 -83
-20 -83 -11 0 -20 6 -20 13 -1 6 -20 54 -44 105 l-43 93 -7 -38 c-3 -21 -6
-64 -6 -95 0 -45 -3 -58 -15 -58 -17 0 -18 5 -16 75 3 125 13 215 25 215 6 0
31 -45 55 -100 24 -54 48 -97 53 -94 4 3 8 42 8 87 0 97 7 127 28 127 13 0 14
-12 9 -82z m4171 55 c11 -28 29 -109 38 -168 3 -16 16 -52 29 -79 23 -48 24
-66 4 -66 -11 0 -69 117 -69 138 0 7 -12 12 -29 12 -26 0 -30 -6 -50 -60 -14
-37 -28 -60 -37 -60 -9 0 -14 6 -12 13 2 6 16 50 30 97 15 47 34 111 43 143
17 63 36 73 53 30z m-2754 11 c31 -5 46 -12 46 -21 0 -11 -11 -14 -47 -11
l-47 3 3 -85 c1 -47 7 -103 11 -125 13 -57 12 -85 -4 -85 -16 0 -35 109 -39
220 -2 72 -3 75 -27 78 -63 7 -90 14 -85 23 7 10 119 12 189 3z m351 -67 l10
-62 40 0 40 0 3 63 c2 34 7 62 13 62 15 0 17 -16 22 -167 2 -107 0 -143 -9
-143 -15 0 -24 33 -24 98 l0 52 -46 0 -45 0 6 -54 c8 -59 0 -96 -19 -96 -8 0
-12 18 -11 58 1 31 -2 99 -6 151 -8 90 -5 120 10 106 3 -4 11 -34 16 -68z
m2018 67 c24 -4 37 -12 37 -22 0 -12 -9 -14 -48 -9 l-49 6 4 -82 c2 -45 8
-104 14 -130 12 -66 11 -87 -5 -87 -16 0 -35 109 -39 220 l-2 75 -30 3 c-50 4
-75 12 -75 22 0 11 133 13 193 4z m922 -19 c37 -36 32 -70 -15 -117 l-40 -40
38 -43 c29 -34 42 -43 60 -38 29 7 30 -22 1 -37 -16 -9 -26 -8 -45 5 -13 8
-24 19 -24 23 0 4 -15 22 -32 41 l-32 35 -7 -25 c-4 -13 -7 -39 -8 -56 -1 -19
-6 -33 -13 -33 -10 0 -14 39 -15 155 l-3 155 55 0 c46 0 60 -4 80 -25z"/>
<path d="M4122 6392 c-10 -10 -65 -135 -121 -278 -56 -142 -155 -391 -219
-551 l-116 -293 -133 0 c-73 0 -133 2 -133 5 0 2 18 51 40 107 46 118 46 121
23 114 -10 -2 -115 -30 -233 -61 -753 -198 -1346 -407 -1815 -640 -432 -214
-665 -423 -665 -594 0 -112 148 -206 405 -259 115 -24 363 -52 460 -52 l66 0
18 43 c10 23 99 244 197 490 97 247 190 466 205 487 42 58 106 84 214 88 110
3 181 -22 227 -79 18 -22 60 -117 104 -230 40 -107 122 -321 181 -476 l108
-283 31 0 c87 0 795 81 1011 115 51 8 96 15 99 15 14 0 -4 103 -23 128 -10 15
-37 36 -59 47 -35 18 -66 20 -294 26 -291 6 -334 16 -417 92 -69 64 -103 148
-103 259 0 188 86 311 247 353 46 12 131 15 420 15 l363 0 0 -110 0 -109 -358
-3 c-392 -3 -388 -3 -429 -65 -25 -38 -23 -124 3 -160 40 -54 59 -57 329 -64
267 -7 317 -15 398 -62 23 -14 52 -36 64 -49 40 -43 75 -128 81 -194 3 -37 9
-64 16 -64 33 0 473 84 484 93 9 7 12 77 12 288 l0 279 -185 0 -185 0 0 110 0
110 480 0 480 0 0 -110 0 -110 -185 0 -185 0 0 -260 c0 -259 0 -260 21 -260
47 0 618 133 668 156 53 24 58 24 340 24 174 0 302 4 326 11 110 30 156 165
90 266 -34 51 -83 63 -277 63 -131 0 -178 -3 -182 -12 -5 -10 -7 -10 -12 0 -4
9 -50 12 -180 12 l-174 0 0 111 0 110 403 -3 c392 -3 403 -4 458 -26 104 -42
181 -132 209 -244 7 -27 18 -48 24 -48 13 0 414 123 528 162 59 20 71 29 97
70 18 28 48 57 78 75 46 27 53 28 188 28 l140 1 170 68 c587 235 892 445 872
600 -15 111 -226 216 -575 286 -139 27 -380 60 -448 60 -28 0 -31 -4 -43 -49
-14 -57 -74 -146 -123 -183 -71 -54 -165 -88 -247 -88 -53 0 -182 29 -196 44
-5 6 -31 28 -57 49 -52 42 -93 104 -120 182 l-17 50 -63 3 c-65 4 -449 -15
-504 -24 l-31 -6 -6 -116 c-15 -301 -133 -483 -368 -569 l-74 -28 -353 -3
-352 -3 -30 30 -30 29 0 256 c0 237 -1 256 -17 256 -22 0 -424 -68 -428 -72
-2 -2 33 -98 77 -213 44 -116 86 -227 93 -248 l14 -38 -136 3 -137 3 -53 140
c-29 77 -78 203 -108 280 -29 77 -99 262 -155 410 -60 159 -110 277 -122 288
-26 22 -63 22 -86 -1z"/>
<path d="M5432 6388 c-9 -9 -12 -120 -12 -439 0 -380 2 -428 16 -433 26 -10
365 -7 434 5 124 20 212 92 245 200 29 99 38 211 25 325 -14 131 -39 200 -91
254 -78 80 -162 100 -429 100 -124 0 -180 -4 -188 -12z"/>
<path d="M2278 4753 c-8 -10 -31 -63 -53 -118 -28 -75 -249 -635 -293 -744 -5
-12 33 -13 259 -7 279 8 485 19 493 27 5 5 -302 828 -317 847 -14 18 -72 15
-89 -5z"/>
<path d="M2908 3158 c-22 -17 -49 -114 -42 -147 14 -56 73 -93 115 -70 26 14
58 84 59 127 0 44 -14 68 -50 87 -35 18 -61 19 -82 3z"/>
<path d="M3800 3028 l1 -143 39 43 c40 44 70 115 70 164 0 39 -40 78 -80 78
l-30 0 0 -142z"/>
</g>
</svg>
